<svg width="996" height="996" viewBox="0 0 996 996" xmlns="http://www.w3.org/2000/svg"><circle cx="497.5" cy="497.5" r="497.5" fill="#002966"/><path d="M541.503 207.5C541.503 207.5 541.503 207.5 946.503 283.5C974.07 341.099 999.5 422 994.503 527.5C985.883 644.36 942.55 746.028 864.503 832.501C673.06 795.565 272 716.001 272 716.001C281.667 716.001 541.503 207.5 541.503 207.5Z" fill="#081E55"/><path d="M541.5 207.249C492.5 204.25 491.5 204.25 454.5 207.249L366.5 453.249H410.338C423.207 448.11 437.465 443.688 451 440L491.5 317.249L495 302.249L498.5 317.249L535.5 427C539.895 426.845 544.062 427 548.495 427C573.924 427 598.753 429.565 622.739 434.451L541.5 207.249Z" fill="url(#paint0_linear)"/><path d="M622.739 434.451C598.753 429.565 573.924 427 548.495 427C544.133 427 539.825 426.85 535.5 427L636.5 716L722 716L622.739 434.451Z" fill="url(#paint1_linear)"/><path d="M451 440C437.529 443.678 423.099 448.133 410.287 453.249C404.424 455.711 378.353 467.123 355 484.748L272 716L357.5 716L401.5 589.5C401.5 589.5 546.5 592.5 555 589.5C547 570.5 529.5 535.748 498.5 535.748C467.5 535.748 414.5 536.248 414.5 536.248L423 524.248L451 440Z" fill="url(#paint2_linear)"/><path d="M401.5 589.5H555C556.5 593 558.5 600.5 558.5 600.5C553 604 397.5 601 397.5 601L401.5 589.5Z" fill="url(#paint3_linear)"/><defs><linearGradient id="paint0_linear" x1="462.996" y1="537" x2="590.996" y2="388.5" gradientUnits="userSpaceOnUse"><stop stop-color="#0047FC"/><stop offset="1" stop-color="#00B1FE"/></linearGradient><linearGradient id="paint1_linear" x1="361" y1="484.5" x2="572.5" y2="717" gradientUnits="userSpaceOnUse"><stop stop-color="#0047FC"/><stop offset="1" stop-color="#00C0FE"/></linearGradient><linearGradient id="paint2_linear" x1="361" y1="484.5" x2="572.5" y2="717" gradientUnits="userSpaceOnUse"><stop stop-color="#0047FC"/><stop offset="1" stop-color="#00C0FE"/></linearGradient><linearGradient id="paint3_linear" x1="397.5" y1="601" x2="554" y2="590" gradientUnits="userSpaceOnUse"><stop stop-color="#0155F5"/><stop offset="1" stop-color="#00C9FF"/></linearGradient></defs></svg>
