<svg width="767" height="526" viewBox="0 0 767 526" fill="none" xmlns="http://www.w3.org/2000/svg">
<circle cx="351.036" cy="262.635" r="261.787" stroke="white" stroke-width="1.69442"/>
<circle cx="637.752" cy="231.752" r="127.905" stroke="white" stroke-width="1.69442"/>
<line x1="0.993856" y1="238.174" x2="184.747" y2="287.41" stroke="white" stroke-width="1.69442"/>
<line x1="7.21927" y1="214.182" x2="190.973" y2="263.418" stroke="white" stroke-width="1.69442"/>
<path d="M237.256 191.908V217H233.98V205.624H221.2V217H217.924V191.908H221.2V202.924H233.98V191.908H237.256ZM260.85 206.38C260.85 207.004 260.814 207.664 260.742 208.36H244.974C245.094 210.304 245.754 211.828 246.954 212.932C248.178 214.012 249.654 214.552 251.382 214.552C252.798 214.552 253.974 214.228 254.91 213.58C255.87 212.908 256.542 212.02 256.926 210.916H260.454C259.926 212.812 258.87 214.36 257.286 215.56C255.702 216.736 253.734 217.324 251.382 217.324C249.51 217.324 247.83 216.904 246.342 216.064C244.878 215.224 243.726 214.036 242.886 212.5C242.046 210.94 241.626 209.14 241.626 207.1C241.626 205.06 242.034 203.272 242.85 201.736C243.666 200.2 244.806 199.024 246.27 198.208C247.758 197.368 249.462 196.948 251.382 196.948C253.254 196.948 254.91 197.356 256.35 198.172C257.79 198.988 258.894 200.116 259.662 201.556C260.454 202.972 260.85 204.58 260.85 206.38ZM257.466 205.696C257.466 204.448 257.19 203.38 256.638 202.492C256.086 201.58 255.33 200.896 254.37 200.44C253.434 199.96 252.39 199.72 251.238 199.72C249.582 199.72 248.166 200.248 246.99 201.304C245.838 202.36 245.178 203.824 245.01 205.696H257.466ZM268.45 190.36V217H265.174V190.36H268.45ZM277.31 200.908C277.958 199.78 278.918 198.844 280.19 198.1C281.486 197.332 282.986 196.948 284.69 196.948C286.442 196.948 288.026 197.368 289.442 198.208C290.882 199.048 292.01 200.236 292.826 201.772C293.642 203.284 294.05 205.048 294.05 207.064C294.05 209.056 293.642 210.832 292.826 212.392C292.01 213.952 290.882 215.164 289.442 216.028C288.026 216.892 286.442 217.324 284.69 217.324C283.01 217.324 281.522 216.952 280.226 216.208C278.954 215.44 277.982 214.492 277.31 213.364V226.36H274.034V197.272H277.31V200.908ZM290.702 207.064C290.702 205.576 290.402 204.28 289.802 203.176C289.202 202.072 288.386 201.232 287.354 200.656C286.346 200.08 285.23 199.792 284.006 199.792C282.806 199.792 281.69 200.092 280.658 200.692C279.65 201.268 278.834 202.12 278.21 203.248C277.61 204.352 277.31 205.636 277.31 207.1C277.31 208.588 277.61 209.896 278.21 211.024C278.834 212.128 279.65 212.98 280.658 213.58C281.69 214.156 282.806 214.444 284.006 214.444C285.23 214.444 286.346 214.156 287.354 213.58C288.386 212.98 289.202 212.128 289.802 211.024C290.402 209.896 290.702 208.576 290.702 207.064ZM300.054 194.068C299.43 194.068 298.902 193.852 298.47 193.42C298.038 192.988 297.822 192.46 297.822 191.836C297.822 191.212 298.038 190.684 298.47 190.252C298.902 189.82 299.43 189.604 300.054 189.604C300.654 189.604 301.158 189.82 301.566 190.252C301.998 190.684 302.214 191.212 302.214 191.836C302.214 192.46 301.998 192.988 301.566 193.42C301.158 193.852 300.654 194.068 300.054 194.068ZM301.638 197.272V217H298.362V197.272H301.638ZM316.833 196.912C319.233 196.912 321.177 197.644 322.665 199.108C324.153 200.548 324.897 202.636 324.897 205.372V217H321.657V205.84C321.657 203.872 321.165 202.372 320.181 201.34C319.197 200.284 317.853 199.756 316.149 199.756C314.421 199.756 313.041 200.296 312.009 201.376C311.001 202.456 310.497 204.028 310.497 206.092V217H307.221V197.272H310.497V200.08C311.145 199.072 312.021 198.292 313.125 197.74C314.253 197.188 315.489 196.912 316.833 196.912ZM338.385 196.948C340.089 196.948 341.577 197.32 342.849 198.064C344.145 198.808 345.105 199.744 345.729 200.872V197.272H349.041V217.432C349.041 219.232 348.657 220.828 347.889 222.22C347.121 223.636 346.017 224.74 344.577 225.532C343.161 226.324 341.505 226.72 339.609 226.72C337.017 226.72 334.857 226.108 333.129 224.884C331.401 223.66 330.381 221.992 330.069 219.88H333.309C333.669 221.08 334.413 222.04 335.541 222.76C336.669 223.504 338.025 223.876 339.609 223.876C341.409 223.876 342.873 223.312 344.001 222.184C345.153 221.056 345.729 219.472 345.729 217.432V213.292C345.081 214.444 344.121 215.404 342.849 216.172C341.577 216.94 340.089 217.324 338.385 217.324C336.633 217.324 335.037 216.892 333.597 216.028C332.181 215.164 331.065 213.952 330.249 212.392C329.433 210.832 329.025 209.056 329.025 207.064C329.025 205.048 329.433 203.284 330.249 201.772C331.065 200.236 332.181 199.048 333.597 198.208C335.037 197.368 336.633 196.948 338.385 196.948ZM345.729 207.1C345.729 205.612 345.429 204.316 344.829 203.212C344.229 202.108 343.413 201.268 342.381 200.692C341.373 200.092 340.257 199.792 339.033 199.792C337.809 199.792 336.693 200.08 335.685 200.656C334.677 201.232 333.873 202.072 333.273 203.176C332.673 204.28 332.373 205.576 332.373 207.064C332.373 208.576 332.673 209.896 333.273 211.024C333.873 212.128 334.677 212.98 335.685 213.58C336.693 214.156 337.809 214.444 339.033 214.444C340.257 214.444 341.373 214.156 342.381 213.58C343.413 212.98 344.229 212.128 344.829 211.024C345.429 209.896 345.729 208.588 345.729 207.1ZM365.866 194.068C365.242 194.068 364.714 193.852 364.282 193.42C363.85 192.988 363.634 192.46 363.634 191.836C363.634 191.212 363.85 190.684 364.282 190.252C364.714 189.82 365.242 189.604 365.866 189.604C366.466 189.604 366.97 189.82 367.378 190.252C367.81 190.684 368.026 191.212 368.026 191.836C368.026 192.46 367.81 192.988 367.378 193.42C366.97 193.852 366.466 194.068 365.866 194.068ZM367.45 197.272V217H364.174V197.272H367.45ZM382.646 196.912C385.046 196.912 386.99 197.644 388.478 199.108C389.966 200.548 390.71 202.636 390.71 205.372V217H387.47V205.84C387.47 203.872 386.978 202.372 385.994 201.34C385.01 200.284 383.666 199.756 381.962 199.756C380.234 199.756 378.854 200.296 377.822 201.376C376.814 202.456 376.31 204.028 376.31 206.092V217H373.034V197.272H376.31V200.08C376.958 199.072 377.834 198.292 378.938 197.74C380.066 197.188 381.302 196.912 382.646 196.912ZM414.263 217.324C412.415 217.324 410.735 216.904 409.223 216.064C407.735 215.224 406.559 214.036 405.695 212.5C404.855 210.94 404.435 209.14 404.435 207.1C404.435 205.084 404.867 203.308 405.731 201.772C406.619 200.212 407.819 199.024 409.331 198.208C410.843 197.368 412.535 196.948 414.407 196.948C416.279 196.948 417.971 197.368 419.483 198.208C420.995 199.024 422.183 200.2 423.047 201.736C423.935 203.272 424.379 205.06 424.379 207.1C424.379 209.14 423.923 210.94 423.011 212.5C422.123 214.036 420.911 215.224 419.375 216.064C417.839 216.904 416.135 217.324 414.263 217.324ZM414.263 214.444C415.439 214.444 416.543 214.168 417.575 213.616C418.607 213.064 419.435 212.236 420.059 211.132C420.707 210.028 421.031 208.684 421.031 207.1C421.031 205.516 420.719 204.172 420.095 203.068C419.471 201.964 418.655 201.148 417.647 200.62C416.639 200.068 415.547 199.792 414.371 199.792C413.171 199.792 412.067 200.068 411.059 200.62C410.075 201.148 409.283 201.964 408.683 203.068C408.083 204.172 407.783 205.516 407.783 207.1C407.783 208.708 408.071 210.064 408.647 211.168C409.247 212.272 410.039 213.1 411.023 213.652C412.007 214.18 413.087 214.444 414.263 214.444ZM436.03 213.976L442.15 197.272H445.642L437.902 217H434.086L426.346 197.272H429.874L436.03 213.976ZM466.866 206.38C466.866 207.004 466.83 207.664 466.758 208.36H450.99C451.11 210.304 451.77 211.828 452.97 212.932C454.194 214.012 455.67 214.552 457.398 214.552C458.814 214.552 459.99 214.228 460.926 213.58C461.886 212.908 462.558 212.02 462.942 210.916H466.47C465.942 212.812 464.886 214.36 463.302 215.56C461.718 216.736 459.75 217.324 457.398 217.324C455.526 217.324 453.846 216.904 452.358 216.064C450.894 215.224 449.742 214.036 448.902 212.5C448.062 210.94 447.642 209.14 447.642 207.1C447.642 205.06 448.05 203.272 448.866 201.736C449.682 200.2 450.822 199.024 452.286 198.208C453.774 197.368 455.478 196.948 457.398 196.948C459.27 196.948 460.926 197.356 462.366 198.172C463.806 198.988 464.91 200.116 465.678 201.556C466.47 202.972 466.866 204.58 466.866 206.38ZM463.482 205.696C463.482 204.448 463.206 203.38 462.654 202.492C462.102 201.58 461.346 200.896 460.386 200.44C459.45 199.96 458.406 199.72 457.254 199.72C455.598 199.72 454.182 200.248 453.006 201.304C451.854 202.36 451.194 203.824 451.026 205.696H463.482ZM474.466 200.476C475.042 199.348 475.858 198.472 476.914 197.848C477.994 197.224 479.302 196.912 480.838 196.912V200.296H479.974C476.302 200.296 474.466 202.288 474.466 206.272V217H471.19V197.272H474.466V200.476ZM288.242 346.324C286.73 346.324 285.374 346.072 284.174 345.568C282.974 345.04 282.026 344.32 281.33 343.408C280.634 342.472 280.25 341.404 280.178 340.204H283.562C283.658 341.188 284.114 341.992 284.93 342.616C285.77 343.24 286.862 343.552 288.206 343.552C289.454 343.552 290.438 343.276 291.158 342.724C291.878 342.172 292.238 341.476 292.238 340.636C292.238 339.772 291.854 339.136 291.086 338.728C290.318 338.296 289.13 337.876 287.522 337.468C286.058 337.084 284.858 336.7 283.922 336.316C283.01 335.908 282.218 335.32 281.546 334.552C280.898 333.76 280.574 332.728 280.574 331.456C280.574 330.448 280.874 329.524 281.474 328.684C282.074 327.844 282.926 327.184 284.03 326.704C285.134 326.2 286.394 325.948 287.81 325.948C289.994 325.948 291.758 326.5 293.102 327.604C294.446 328.708 295.166 330.22 295.262 332.14H291.986C291.914 331.108 291.494 330.28 290.726 329.656C289.982 329.032 288.974 328.72 287.702 328.72C286.526 328.72 285.59 328.972 284.894 329.476C284.198 329.98 283.85 330.64 283.85 331.456C283.85 332.104 284.054 332.644 284.462 333.076C284.894 333.484 285.422 333.82 286.046 334.084C286.694 334.324 287.582 334.6 288.71 334.912C290.126 335.296 291.278 335.68 292.166 336.064C293.054 336.424 293.81 336.976 294.434 337.72C295.082 338.464 295.418 339.436 295.442 340.636C295.442 341.716 295.142 342.688 294.542 343.552C293.942 344.416 293.09 345.1 291.986 345.604C290.906 346.084 289.658 346.324 288.242 346.324ZM318.067 335.38C318.067 336.004 318.031 336.664 317.959 337.36H302.191C302.311 339.304 302.971 340.828 304.171 341.932C305.395 343.012 306.871 343.552 308.599 343.552C310.015 343.552 311.191 343.228 312.127 342.58C313.087 341.908 313.759 341.02 314.143 339.916H317.671C317.143 341.812 316.087 343.36 314.503 344.56C312.919 345.736 310.951 346.324 308.599 346.324C306.727 346.324 305.047 345.904 303.559 345.064C302.095 344.224 300.943 343.036 300.103 341.5C299.263 339.94 298.843 338.14 298.843 336.1C298.843 334.06 299.251 332.272 300.067 330.736C300.883 329.2 302.023 328.024 303.487 327.208C304.975 326.368 306.679 325.948 308.599 325.948C310.471 325.948 312.127 326.356 313.567 327.172C315.007 327.988 316.111 329.116 316.879 330.556C317.671 331.972 318.067 333.58 318.067 335.38ZM314.683 334.696C314.683 333.448 314.407 332.38 313.855 331.492C313.303 330.58 312.547 329.896 311.587 329.44C310.651 328.96 309.607 328.72 308.455 328.72C306.799 328.72 305.383 329.248 304.207 330.304C303.055 331.36 302.395 332.824 302.227 334.696H314.683ZM325.667 329.476C326.243 328.348 327.059 327.472 328.115 326.848C329.195 326.224 330.503 325.912 332.039 325.912V329.296H331.175C327.503 329.296 325.667 331.288 325.667 335.272V346H322.391V326.272H325.667V329.476ZM343.165 342.976L349.285 326.272H352.777L345.037 346H341.221L333.481 326.272H337.009L343.165 342.976ZM374.001 335.38C374.001 336.004 373.965 336.664 373.893 337.36H358.125C358.245 339.304 358.905 340.828 360.105 341.932C361.329 343.012 362.805 343.552 364.533 343.552C365.949 343.552 367.125 343.228 368.061 342.58C369.021 341.908 369.693 341.02 370.077 339.916H373.605C373.077 341.812 372.021 343.36 370.437 344.56C368.853 345.736 366.885 346.324 364.533 346.324C362.661 346.324 360.981 345.904 359.493 345.064C358.029 344.224 356.877 343.036 356.037 341.5C355.197 339.94 354.777 338.14 354.777 336.1C354.777 334.06 355.185 332.272 356.001 330.736C356.817 329.2 357.957 328.024 359.421 327.208C360.909 326.368 362.613 325.948 364.533 325.948C366.405 325.948 368.061 326.356 369.501 327.172C370.941 327.988 372.045 329.116 372.813 330.556C373.605 331.972 374.001 333.58 374.001 335.38ZM370.617 334.696C370.617 333.448 370.341 332.38 369.789 331.492C369.237 330.58 368.481 329.896 367.521 329.44C366.585 328.96 365.541 328.72 364.389 328.72C362.733 328.72 361.317 329.248 360.141 330.304C358.989 331.36 358.329 332.824 358.161 334.696H370.617ZM381.601 329.476C382.177 328.348 382.993 327.472 384.049 326.848C385.129 326.224 386.437 325.912 387.973 325.912V329.296H387.109C383.437 329.296 381.601 331.288 381.601 335.272V346H378.325V326.272H381.601V329.476ZM398.738 346.324C397.226 346.324 395.87 346.072 394.67 345.568C393.47 345.04 392.522 344.32 391.826 343.408C391.13 342.472 390.746 341.404 390.674 340.204H394.058C394.154 341.188 394.61 341.992 395.426 342.616C396.266 343.24 397.358 343.552 398.702 343.552C399.95 343.552 400.934 343.276 401.654 342.724C402.374 342.172 402.734 341.476 402.734 340.636C402.734 339.772 402.35 339.136 401.582 338.728C400.814 338.296 399.626 337.876 398.018 337.468C396.554 337.084 395.354 336.7 394.418 336.316C393.506 335.908 392.714 335.32 392.042 334.552C391.394 333.76 391.07 332.728 391.07 331.456C391.07 330.448 391.37 329.524 391.97 328.684C392.57 327.844 393.422 327.184 394.526 326.704C395.63 326.2 396.89 325.948 398.306 325.948C400.49 325.948 402.254 326.5 403.598 327.604C404.942 328.708 405.662 330.22 405.758 332.14H402.482C402.41 331.108 401.99 330.28 401.222 329.656C400.478 329.032 399.47 328.72 398.198 328.72C397.022 328.72 396.086 328.972 395.39 329.476C394.694 329.98 394.346 330.64 394.346 331.456C394.346 332.104 394.55 332.644 394.958 333.076C395.39 333.484 395.918 333.82 396.542 334.084C397.19 334.324 398.078 334.6 399.206 334.912C400.622 335.296 401.774 335.68 402.662 336.064C403.55 336.424 404.306 336.976 404.93 337.72C405.578 338.464 405.914 339.436 405.938 340.636C405.938 341.716 405.638 342.688 405.038 343.552C404.438 344.416 403.586 345.1 402.482 345.604C401.402 346.084 400.154 346.324 398.738 346.324ZM414.811 320.908L414.415 338.908H411.679L411.283 320.908H414.811ZM413.191 346.216C412.567 346.216 412.039 346 411.607 345.568C411.175 345.136 410.959 344.608 410.959 343.984C410.959 343.36 411.175 342.832 411.607 342.4C412.039 341.968 412.567 341.752 413.191 341.752C413.791 341.752 414.295 341.968 414.703 342.4C415.135 342.832 415.351 343.36 415.351 343.984C415.351 344.608 415.135 345.136 414.703 345.568C414.295 346 413.791 346.216 413.191 346.216Z" fill="white"/>
<path d="M343.399 261.6H327.199V270.15C327.899 269.283 328.899 268.583 330.199 268.05C331.499 267.483 332.882 267.2 334.349 267.2C337.016 267.2 339.199 267.783 340.899 268.95C342.599 270.117 343.832 271.617 344.599 273.45C345.366 275.25 345.749 277.183 345.749 279.25C345.749 283.083 344.649 286.167 342.449 288.5C340.282 290.833 337.182 292 333.149 292C329.349 292 326.316 291.05 324.049 289.15C321.782 287.25 320.499 284.767 320.199 281.7H326.999C327.299 283.033 327.966 284.1 328.999 284.9C330.066 285.7 331.416 286.1 333.049 286.1C335.016 286.1 336.499 285.483 337.499 284.25C338.499 283.017 338.999 281.383 338.999 279.35C338.999 277.283 338.482 275.717 337.449 274.65C336.449 273.55 334.966 273 332.999 273C331.599 273 330.432 273.35 329.499 274.05C328.566 274.75 327.899 275.683 327.499 276.85H320.799V255.45H343.399V261.6ZM351.077 273.3C351.077 267.533 352.11 263.017 354.177 259.75C356.277 256.483 359.743 254.85 364.577 254.85C369.41 254.85 372.86 256.483 374.927 259.75C377.027 263.017 378.077 267.533 378.077 273.3C378.077 279.1 377.027 283.65 374.927 286.95C372.86 290.25 369.41 291.9 364.577 291.9C359.743 291.9 356.277 290.25 354.177 286.95C352.11 283.65 351.077 279.1 351.077 273.3ZM371.177 273.3C371.177 270.833 371.01 268.767 370.677 267.1C370.377 265.4 369.743 264.017 368.777 262.95C367.843 261.883 366.443 261.35 364.577 261.35C362.71 261.35 361.293 261.883 360.327 262.95C359.393 264.017 358.76 265.4 358.427 267.1C358.127 268.767 357.977 270.833 357.977 273.3C357.977 275.833 358.127 277.967 358.427 279.7C358.727 281.4 359.36 282.783 360.327 283.85C361.293 284.883 362.71 285.4 364.577 285.4C366.443 285.4 367.86 284.883 368.827 283.85C369.793 282.783 370.427 281.4 370.727 279.7C371.027 277.967 371.177 275.833 371.177 273.3Z" fill="#00D1FF"/>
</svg>
