<svg width="1000" height="1000" viewBox="0 0 1000 1000" fill="none" xmlns="http://www.w3.org/2000/svg">
<g clip-path="url(#clip0)">
<rect width="1000" height="1000" rx="500" fill="#002966"/>
<path fill-rule="evenodd" clip-rule="evenodd" d="M383.175 405.341L453.801 208H544.331L1019.59 298.235C1045.09 303.077 1061.84 327.675 1057 353.177L971.285 804.633C966.443 830.135 941.844 846.883 916.343 842.041L284.481 722.073C279.815 721.188 275.443 719.64 271.441 717.547L355.005 484.056L424.107 508.16L451.642 429.224L383.175 405.341Z" fill="#081E55"/>
<mask id="mask0" mask-type="alpha" maskUnits="userSpaceOnUse" x="271" y="206" width="453" height="509">
<path d="M454.455 206.1H540.555L723.256 715H631.555L499.955 324.4L494.355 300.6L488.755 325.1L422.255 523.2L413.855 537.2L423.655 535.8H492.255C501.589 535.8 509.755 537.9 516.755 542.1C524.222 545.833 530.522 550.733 535.655 556.8C540.789 562.867 545.222 569.867 548.955 577.8C552.689 585.267 555.722 592.5 558.055 599.5H397.055L358.555 715H271.755L454.455 206.1Z" fill="url(#paint0_linear)"/>
</mask>
<g mask="url(#mask0)">
<rect x="268" y="124.458" width="526" height="328.505" transform="rotate(-0.485603 268 124.458)" fill="url(#paint1_linear)"/>
<ellipse cx="537.658" cy="660.71" rx="283" ry="234.5" transform="rotate(-2.94066 537.658 660.71)" fill="url(#paint2_linear)"/>
</g>
<path fill-rule="evenodd" clip-rule="evenodd" d="M553.901 589H401.069L397 600H558.279L553.901 589Z" fill="url(#paint3_linear)"/>
</g>
<defs>
<linearGradient id="paint0_linear" x1="32.1273" y1="203.125" x2="848.046" y2="845.339" gradientUnits="userSpaceOnUse">
<stop stop-color="#0038FF"/>
<stop offset="1" stop-color="#00F0FF"/>
</linearGradient>
<linearGradient id="paint1_linear" x1="583.399" y1="255.678" x2="320.714" y2="453.459" gradientUnits="userSpaceOnUse">
<stop offset="0.304775" stop-color="#00B2FF"/>
<stop offset="0.848958" stop-color="#0047FF"/>
</linearGradient>
<linearGradient id="paint2_linear" x1="404.065" y1="431.845" x2="707.528" y2="752.536" gradientUnits="userSpaceOnUse">
<stop stop-color="#0361FF"/>
<stop offset="0.777691" stop-color="#00C2FF"/>
</linearGradient>
<linearGradient id="paint3_linear" x1="362.727" y1="594.5" x2="604.095" y2="594.5" gradientUnits="userSpaceOnUse">
<stop stop-color="#0038FF"/>
<stop offset="1" stop-color="#00F0FF"/>
</linearGradient>
<clipPath id="clip0">
<rect width="1000" height="1000" rx="500" fill="white"/>
</clipPath>
</defs>
</svg>
